# xmcd
#
# Track frame offsets: 
#        150
#        16114
#        30906
#        47726
#        63408
#        81822
#        99847
#        121161
#        138098
#        156728
#        180187
#        205019
#        221636
#        239558
#        259593
#
# Disc length: 3643 seconds
#
# Revision: 2
# Processed by: cddbd v1.4PL0 Copyright (c) Steve Scherf et al.
# Submitted via: ExactAudioCopy v0.90b4
#
DISCID=bb0e390f
DTITLE=Boyzone - Where We Belong
DYEAR=1998
DGENRE=R&B
TTITLE0=Picture Of You
TTITLE1=Baby Can I Hold You
TTITLE2=All That I Need
TTITLE3=Must Have Been High
TTITLE4=And I
TTITLE5=That's How Love Goes
TTITLE6=Where Did You Go?
TTITLE7=I'm Learning (Part I)
TTITLE8=One Kiss At A Time
TTITLE9=While The World Is Going Crazy
TTITLE10=This Is Where I Belong
TTITLE11=Will Be Yours
TTITLE12=Good Conversation
TTITLE13=You Flew Away
TTITLE14=I'm Learning (Part II)
EXTD=
EXTT0=
EXTT1=
EXTT2=
EXTT3=
EXTT4=
EXTT5=
EXTT6=
EXTT7=
EXTT8=
EXTT9=
EXTT10=
EXTT11=
EXTT12=
EXTT13=
EXTT14=
PLAYORDER=
